<?xml version="1.0" encoding="UTF-8" standalone="no"?>
<svg
   xmlns:dc="http://purl.org/dc/elements/1.1/"
   xmlns:cc="http://creativecommons.org/ns#"
   xmlns:rdf="http://www.w3.org/1999/02/22-rdf-syntax-ns#"
   xmlns:svg="http://www.w3.org/2000/svg"
   xmlns="http://www.w3.org/2000/svg"
   viewBox="0 0 816 1056"
   height="1056"
   width="816"
   xml:space="preserve"
   id="svg2"
   version="1.1"><metadata
     id="metadata8"><rdf:RDF><cc:Work
         rdf:about=""><dc:format>image/svg+xml</dc:format><dc:type
           rdf:resource="http://purl.org/dc/dcmitype/StillImage" /></cc:Work></rdf:RDF></metadata><defs
     id="defs6"><clipPath
       id="clipPath18"
       clipPathUnits="userSpaceOnUse"><path
         id="path16"
         d="M 0,792 H 612 V 0 H 0 Z" /></clipPath></defs><g
     transform="matrix(1.3333333,0,0,-1.3333333,0,1056)"
     id="g10"><g
       id="g12"><g
         clip-path="url(#clipPath18)"
         id="g14"><g
           transform="translate(218.2764,449.5405)"
           id="g20"><path
             id="path22"
             style="fill:#ad9170;fill-opacity:1;fill-rule:nonzero;stroke:none"
             d="m 0,0 c 4.112,-12.46 6.025,-20.791 -3.679,-24.741 -7.164,-2.915 -6.097,-9.8 -6.097,-9.8 h 21.5 c 0,0 9.944,17.701 10.222,24.351" /></g><g
           transform="translate(365.4053,454)"
           id="g24"><path
             id="path26"
             style="fill:#ad9170;fill-opacity:1;fill-rule:nonzero;stroke:none"
             d="M 0,0 C 3.098,-19.875 -1.655,-18.75 -8.405,-23.75 -14.161,-28.013 -10.963,-36 -10.963,-36 l 17.808,1.5 8.71,21.93" /></g><g
           transform="translate(185.3335,476)"
           id="g28"><path
             id="path30"
             style="fill:#e6ba89;fill-opacity:1;fill-rule:nonzero;stroke:none"
             d="M 0,0 C -84.667,-8.667 -66.333,106 18,62.667 49.965,46.242 41.167,29 88.749,62.33 c 28.262,19.795 97.918,27.17 145.918,-38.997 12.25,-1.083 36,23.417 48.666,30 53.321,27.713 14.667,-70 -44,-48 C 236.667,-24 214,-59.333 214,-59.333 h -19.333 c 0,0 -1.108,8.608 4.338,10.649 5.162,1.934 2.995,7.351 2.995,7.351 0,0 -57.333,70.666 -115.333,4 -1.25,-9.417 -14,-29.417 -14,-29.417 l -19.334,1.473 c 0,0 -1.333,7.944 6,10.61 7.334,2.667 2,15.334 2,15.334 0,0 -62,24.666 -61.333,39.333" /></g><g
           transform="translate(185.3335,476)"
           id="g32"><path
             id="path34"
             style="fill:none;stroke:#e6ba89;stroke-width:4;stroke-linecap:butt;stroke-linejoin:miter;stroke-miterlimit:10;stroke-dasharray:none;stroke-opacity:1"
             d="M 0,0 C -84.667,-8.667 -66.333,106 18,62.667 49.965,46.242 41.167,29 88.749,62.33 c 28.262,19.795 97.918,27.17 145.918,-38.997 12.25,-1.083 36,23.417 48.666,30 53.321,27.713 14.667,-70 -44,-48 C 236.667,-24 214,-59.333 214,-59.333 h -19.333 c 0,0 -1.108,8.608 4.338,10.649 5.162,1.934 2.995,7.351 2.995,7.351 0,0 -57.333,70.666 -115.333,4 -1.25,-9.417 -14,-29.417 -14,-29.417 l -19.334,1.473 c 0,0 -1.333,7.944 6,10.61 7.334,2.667 2,15.334 2,15.334 0,0 -62,24.666 -61.333,39.333 z" /></g><g
           transform="translate(175.6665,530)"
           id="g36"><path
             id="path38"
             style="fill:#99754c;fill-opacity:1;fill-rule:nonzero;stroke:none"
             d="m 0,0 c 0.724,0.473 6.669,4.21 13.702,1.782 6.803,-2.349 9.177,-8.588 9.631,-9.782 0.465,-1.22 2.468,-6.485 0,-12 -2.313,-5.171 -8.144,-9.638 -12,-8.333 -3.065,1.037 -1.859,4.94 -6.076,8.291 -5.121,4.07 -11.843,3.658 -14.44,3.499 -2.257,-0.138 -6.172,-0.421 -10.15,-2.79 -5.61,-3.341 -5.136,-8.641 -8.958,-9.282 -3.709,-0.622 -7.129,3.571 -7.709,4.282 -3.859,4.731 -2.916,10.741 -2.667,12.333 1.03,6.566 5.883,13.891 12.14,14.83 3.336,0.5 4.815,-1.153 9.86,-2.497 C -9.902,-1.469 -3.91,-0.802 0,0" /></g><g
           transform="translate(175.6665,530)"
           id="g40"><path
             id="path42"
             style="fill:none;stroke:#edcca7;stroke-width:4;stroke-linecap:butt;stroke-linejoin:miter;stroke-miterlimit:10;stroke-dasharray:none;stroke-opacity:1"
             d="m 0,0 c 0.724,0.473 6.669,4.21 13.702,1.782 6.803,-2.349 9.177,-8.588 9.631,-9.782 0.465,-1.22 2.468,-6.485 0,-12 -2.313,-5.171 -8.144,-9.638 -12,-8.333 -3.065,1.037 -1.859,4.94 -6.076,8.291 -5.121,4.07 -11.843,3.658 -14.44,3.499 -2.257,-0.138 -6.172,-0.421 -10.15,-2.79 -5.61,-3.341 -5.136,-8.641 -8.958,-9.282 -3.709,-0.622 -7.129,3.571 -7.709,4.282 -3.859,4.731 -2.916,10.741 -2.667,12.333 1.03,6.566 5.883,13.891 12.14,14.83 3.336,0.5 4.815,-1.153 9.86,-2.497 C -9.902,-1.469 -3.91,-0.802 0,0 Z" /></g><g
           transform="translate(153.7578,546.1904)"
           id="g44"><path
             id="path46"
             style="fill:#e6ba89;fill-opacity:1;fill-rule:nonzero;stroke:#99754c;stroke-width:3;stroke-linecap:butt;stroke-linejoin:miter;stroke-miterlimit:10;stroke-dasharray:none;stroke-opacity:1"
             d="M 0,0 C -16.742,13.19 -24.758,-0.69 -13.769,-8.669" /></g><g
           transform="translate(180.7964,547.0454)"
           id="g48"><path
             id="path50"
             style="fill:#e6ba89;fill-opacity:1;fill-rule:nonzero;stroke:#99754c;stroke-width:3;stroke-linecap:butt;stroke-linejoin:miter;stroke-miterlimit:10;stroke-dasharray:none;stroke-opacity:1"
             d="M 0,0 C 8.204,10.455 25.87,16.288 22.537,-8.379" /></g><g
           transform="translate(153.7578,520.1841)"
           id="g52"><path
             id="path54"
             style="fill:#1d1d1b;fill-opacity:1;fill-rule:nonzero;stroke:none"
             d="m 0,0 c 0,-2.598 -2.106,-4.705 -4.704,-4.705 -2.598,0 -4.705,2.107 -4.705,4.705 0,2.598 2.107,4.704 4.705,4.704 C -2.106,4.704 0,2.598 0,0" /></g><g
           transform="translate(153.7578,520.1841)"
           id="g56"><path
             id="path58"
             style="fill:none;stroke:#1d1d1b;stroke-width:2;stroke-linecap:butt;stroke-linejoin:miter;stroke-miterlimit:10;stroke-dasharray:none;stroke-opacity:1"
             d="m 0,0 c 0,-2.598 -2.106,-4.705 -4.704,-4.705 -2.598,0 -4.705,2.107 -4.705,4.705 0,2.598 2.107,4.704 4.705,4.704 C -2.106,4.704 0,2.598 0,0 Z" /></g><g
           transform="translate(151.75,520.4946)"
           id="g60"><path
             id="path62"
             style="fill:#ffffff;fill-opacity:1;fill-rule:nonzero;stroke:none"
             d="m 0,0 c 0,-0.933 -0.604,-1.689 -1.348,-1.689 -0.745,0 -1.348,0.756 -1.348,1.689 0,0.933 0.603,1.689 1.348,1.689 C -0.604,1.689 0,0.933 0,0" /></g><g
           transform="translate(151.75,520.4946)"
           id="g64"><path
             id="path66"
             style="fill:none;stroke:#ffffff;stroke-width:1;stroke-linecap:butt;stroke-linejoin:miter;stroke-miterlimit:10;stroke-dasharray:none;stroke-opacity:1"
             d="m 0,0 c 0,-0.933 -0.604,-1.689 -1.348,-1.689 -0.745,0 -1.348,0.756 -1.348,1.689 0,0.933 0.603,1.689 1.348,1.689 C -0.604,1.689 0,0.933 0,0 Z" /></g><g
           transform="translate(187.853,520.1841)"
           id="g68"><path
             id="path70"
             style="fill:#1d1d1b;fill-opacity:1;fill-rule:nonzero;stroke:none"
             d="m 0,0 c 0,-2.598 -2.106,-4.705 -4.705,-4.705 -2.598,0 -4.704,2.107 -4.704,4.705 0,2.598 2.106,4.704 4.704,4.704 C -2.106,4.704 0,2.598 0,0" /></g><g
           transform="translate(187.853,520.1841)"
           id="g72"><path
             id="path74"
             style="fill:none;stroke:#1d1d1b;stroke-width:2;stroke-linecap:butt;stroke-linejoin:miter;stroke-miterlimit:10;stroke-dasharray:none;stroke-opacity:1"
             d="m 0,0 c 0,-2.598 -2.106,-4.705 -4.705,-4.705 -2.598,0 -4.704,2.107 -4.704,4.705 0,2.598 2.106,4.704 4.704,4.704 C -2.106,4.704 0,2.598 0,0 Z" /></g><g
           transform="translate(185.8452,520.4946)"
           id="g76"><path
             id="path78"
             style="fill:#ffffff;fill-opacity:1;fill-rule:nonzero;stroke:none"
             d="m 0,0 c 0,-0.933 -0.604,-1.689 -1.348,-1.689 -0.745,0 -1.349,0.756 -1.349,1.689 0,0.933 0.604,1.689 1.349,1.689 C -0.604,1.689 0,0.933 0,0" /></g><g
           transform="translate(185.8452,520.4946)"
           id="g80"><path
             id="path82"
             style="fill:none;stroke:#ffffff;stroke-width:1;stroke-linecap:butt;stroke-linejoin:miter;stroke-miterlimit:10;stroke-dasharray:none;stroke-opacity:1"
             d="m 0,0 c 0,-0.933 -0.604,-1.689 -1.348,-1.689 -0.745,0 -1.349,0.756 -1.349,1.689 0,0.933 0.604,1.689 1.349,1.689 C -0.604,1.689 0,0.933 0,0 Z" /></g><g
           transform="translate(159.6665,505.3335)"
           id="g84"><path
             id="path86"
             style="fill:#f18598;fill-opacity:1;fill-rule:nonzero;stroke:none"
             d="m 0,0 c 2.022,0.302 4.253,0.543 6.667,0.667 2.53,0.128 4.875,0.108 7,0 C 11.671,-1.641 9.675,-3.948 7.679,-6.255 5.12,-4.17 2.56,-2.085 0,0" /></g><g
           transform="translate(159.6665,505.3335)"
           id="g88"><path
             id="path90"
             style="fill:none;stroke:#f18598;stroke-width:1;stroke-linecap:butt;stroke-linejoin:miter;stroke-miterlimit:10;stroke-dasharray:none;stroke-opacity:1"
             d="m 0,0 c 2.022,0.302 4.253,0.543 6.667,0.667 2.53,0.128 4.875,0.108 7,0 C 11.671,-1.641 9.675,-3.948 7.679,-6.255 5.12,-4.17 2.56,-2.085 0,0 Z" /></g><g
           transform="translate(152.125,493.4302)"
           id="g92"><path
             id="path94"
             style="fill:none;stroke:#6b564b;stroke-width:2;stroke-linecap:butt;stroke-linejoin:miter;stroke-miterlimit:10;stroke-dasharray:none;stroke-opacity:1"
             d="M 0,0 C 0.36,-0.806 1.131,-2.174 2.615,-2.853 3.07,-3.061 4.301,-3.527 8.13,-2.438 9.668,-2 11.777,-1.268 14.167,0 c 2.708,-1.151 5.042,-1.757 6.708,-2.097 3.892,-0.794 5.117,-0.337 5.572,-0.138 2.072,0.903 3.028,2.931 3.388,3.842" /></g><g
           transform="translate(214.9434,264.5576)"
           id="g96"><path
             id="path98"
             style="fill:none;stroke:#1d1d1b;stroke-width:1;stroke-linecap:butt;stroke-linejoin:miter;stroke-miterlimit:10;stroke-dasharray:none;stroke-opacity:1"
             d="m 0,0 c 25.833,19.355 39.167,-30.861 0,-16 -7.964,3.48 -9,0.25 -14.417,-1.701 -37.833,-13.16 -24.143,33.076 0,19.676 C -9.461,-0.776 -4.677,-1.687 0,0 Z" /></g><g
           transform="translate(226.7764,212.5576)"
           id="g100"><path
             id="path102"
             style="fill:none;stroke:#1d1d1b;stroke-width:4;stroke-linecap:butt;stroke-linejoin:miter;stroke-miterlimit:10;stroke-dasharray:none;stroke-opacity:1"
             d="M 0,0 C -84.667,-8.666 -66.333,106 18,62.667 49.965,46.242 41.167,29 88.749,62.33 c 28.262,19.796 97.918,27.17 145.918,-38.996 12.25,-1.084 36,23.416 48.666,30 53.321,27.713 14.667,-70 -44,-48 C 236.667,-24 214,-59.333 214,-59.333 h -19.333 c 0,0 -1.107,8.609 4.339,10.649 5.161,1.934 2.994,7.351 2.994,7.351 0,0 -57.333,70.667 -115.333,4 -1.25,-9.417 -14,-29.417 -14,-29.417 l -19.334,1.474 c 0,0 -1.333,7.943 6,10.61 7.334,2.666 2,15.333 2,15.333 0,0 -62,24.667 -61.333,39.333 z" /></g><g
           transform="translate(195.2012,282.749)"
           id="g104"><path
             id="path106"
             style="fill:none;stroke:#1d1d1b;stroke-width:3;stroke-linecap:butt;stroke-linejoin:miter;stroke-miterlimit:10;stroke-dasharray:none;stroke-opacity:1"
             d="M 0,0 C -16.742,13.19 -24.758,-0.691 -13.769,-8.67" /></g><g
           transform="translate(222.2397,283.6035)"
           id="g108"><path
             id="path110"
             style="fill:none;stroke:#1d1d1b;stroke-width:3;stroke-linecap:butt;stroke-linejoin:miter;stroke-miterlimit:10;stroke-dasharray:none;stroke-opacity:1"
             d="M 0,0 C 8.204,10.454 25.87,16.288 22.537,-8.379" /></g><g
           transform="translate(259.7192,186.0986)"
           id="g112"><path
             id="path114"
             style="fill:none;stroke:#1d1d1b;stroke-width:4;stroke-linecap:butt;stroke-linejoin:miter;stroke-miterlimit:10;stroke-dasharray:none;stroke-opacity:1"
             d="m 0,0 c 4.112,-12.46 6.025,-20.791 -3.679,-24.74 -7.163,-2.916 -6.097,-9.801 -6.097,-9.801 h 21.5 c 0,0 9.945,17.701 10.222,24.351" /></g><g
           transform="translate(406.8486,190.5586)"
           id="g116"><path
             id="path118"
             style="fill:none;stroke:#1d1d1b;stroke-width:4;stroke-linecap:butt;stroke-linejoin:miter;stroke-miterlimit:10;stroke-dasharray:none;stroke-opacity:1"
             d="m 0,0 c 3.098,-19.876 -1.655,-18.751 -8.405,-23.751 -5.756,-4.263 -2.559,-12.25 -2.559,-12.25 l 17.809,1.5 8.709,21.93" /></g><g
           transform="translate(195.2012,256.7422)"
           id="g120"><path
             id="path122"
             style="fill:#1d1d1b;fill-opacity:1;fill-rule:nonzero;stroke:none"
             d="m 0,0 c 0,-2.599 -2.106,-4.704 -4.705,-4.704 -2.598,0 -4.704,2.105 -4.704,4.704 0,2.598 2.106,4.704 4.704,4.704 C -2.106,4.704 0,2.598 0,0" /></g><g
           transform="translate(195.2012,256.7422)"
           id="g124"><path
             id="path126"
             style="fill:none;stroke:#1d1d1b;stroke-width:2;stroke-linecap:butt;stroke-linejoin:miter;stroke-miterlimit:10;stroke-dasharray:none;stroke-opacity:1"
             d="m 0,0 c 0,-2.599 -2.106,-4.704 -4.705,-4.704 -2.598,0 -4.704,2.105 -4.704,4.704 0,2.598 2.106,4.704 4.704,4.704 C -2.106,4.704 0,2.598 0,0 Z" /></g><g
           transform="translate(193.1934,257.0527)"
           id="g128"><path
             id="path130"
             style="fill:#ffffff;fill-opacity:1;fill-rule:nonzero;stroke:none"
             d="m 0,0 c 0,-0.934 -0.604,-1.689 -1.349,-1.689 -0.744,0 -1.348,0.755 -1.348,1.689 0,0.933 0.604,1.689 1.348,1.689 C -0.604,1.689 0,0.933 0,0" /></g><g
           transform="translate(193.1934,257.0527)"
           id="g132"><path
             id="path134"
             style="fill:none;stroke:#ffffff;stroke-width:1;stroke-linecap:butt;stroke-linejoin:miter;stroke-miterlimit:10;stroke-dasharray:none;stroke-opacity:1"
             d="m 0,0 c 0,-0.934 -0.604,-1.689 -1.349,-1.689 -0.744,0 -1.348,0.755 -1.348,1.689 0,0.933 0.604,1.689 1.348,1.689 C -0.604,1.689 0,0.933 0,0 Z" /></g><g
           transform="translate(229.2964,256.7422)"
           id="g136"><path
             id="path138"
             style="fill:#1d1d1b;fill-opacity:1;fill-rule:nonzero;stroke:none"
             d="m 0,0 c 0,-2.599 -2.106,-4.704 -4.705,-4.704 -2.598,0 -4.704,2.105 -4.704,4.704 0,2.598 2.106,4.704 4.704,4.704 C -2.106,4.704 0,2.598 0,0" /></g><g
           transform="translate(229.2964,256.7422)"
           id="g140"><path
             id="path142"
             style="fill:none;stroke:#1d1d1b;stroke-width:2;stroke-linecap:butt;stroke-linejoin:miter;stroke-miterlimit:10;stroke-dasharray:none;stroke-opacity:1"
             d="m 0,0 c 0,-2.599 -2.106,-4.704 -4.705,-4.704 -2.598,0 -4.704,2.105 -4.704,4.704 0,2.598 2.106,4.704 4.704,4.704 C -2.106,4.704 0,2.598 0,0 Z" /></g><g
           transform="translate(227.2881,257.0527)"
           id="g144"><path
             id="path146"
             style="fill:#ffffff;fill-opacity:1;fill-rule:nonzero;stroke:none"
             d="m 0,0 c 0,-0.934 -0.604,-1.689 -1.348,-1.689 -0.745,0 -1.348,0.755 -1.348,1.689 0,0.933 0.603,1.689 1.348,1.689 C -0.604,1.689 0,0.933 0,0" /></g><g
           transform="translate(227.2881,257.0527)"
           id="g148"><path
             id="path150"
             style="fill:none;stroke:#ffffff;stroke-width:1;stroke-linecap:butt;stroke-linejoin:miter;stroke-miterlimit:10;stroke-dasharray:none;stroke-opacity:1"
             d="m 0,0 c 0,-0.934 -0.604,-1.689 -1.348,-1.689 -0.745,0 -1.348,0.755 -1.348,1.689 0,0.933 0.603,1.689 1.348,1.689 C -0.604,1.689 0,0.933 0,0 Z" /></g><g
           transform="translate(200.5264,238.8633)"
           id="g152"><path
             id="path154"
             style="fill:#1d1d1b;fill-opacity:1;fill-rule:nonzero;stroke:none"
             d="M 0,0 C 1.167,5.916 13.333,5.166 14.417,0 L 7.208,-5.167 Z" /></g><g
           transform="translate(193.5684,229.9883)"
           id="g156"><path
             id="path158"
             style="fill:none;stroke:#1d1d1b;stroke-width:2;stroke-linecap:butt;stroke-linejoin:miter;stroke-miterlimit:10;stroke-dasharray:none;stroke-opacity:1"
             d="m 0,0 c 4.375,-4 12.583,-2.5 14.167,0 1.458,-2.47 12.958,-2.875 14.458,0" /></g></g></g></g></svg>