<?xml version="1.0" encoding="utf-8"?>
<!-- Generator: Adobe Illustrator 21.0.2, SVG Export Plug-In . SVG Version: 6.00 Build 0)  -->
<svg version="1.1" xmlns="http://www.w3.org/2000/svg" xmlns:xlink="http://www.w3.org/1999/xlink" x="0px" y="0px"
	 viewBox="0 0 467.7 467.7" style="enable-background:new 0 0 467.7 467.7;" xml:space="preserve">
<style type="text/css">
	.st0{fill:#00855A;}
	.st1{fill:#31C539;}
	.st2{fill:#18AD73;}
	.st3{fill:#18B54A;}
</style>
<g id="Layer_1">
	<rect x="1.1" y="1.2" class="st0" width="467.7" height="467.7"/>
</g>
<g id="Layer_2">
	<polygon class="st1" points="77.8,54.4 60.8,53.1 43.8,51.7 54.2,29.5 64.5,7.4 71.2,30.9 	"/>
	<polygon class="st1" points="129.8,85.7 120.9,92.9 112,100.1 104.4,81.7 96.8,63.3 113.3,74.5 	"/>
	<polygon class="st1" points="82.2,182.4 65.8,183.2 49.3,184 57.1,174.1 64.8,164.2 73.5,173.3 	"/>
	<polygon class="st1" points="162.3,171.8 151.4,180.7 140.5,189.6 138.1,175.5 135.8,161.4 149.1,166.6 	"/>
	<polygon class="st1" points="206.7,94.1 189.7,108 172.7,121.8 169.2,100.1 165.8,78.5 186.2,86.3 	"/>
	<polygon class="st1" points="202.5,28.9 185.5,42.7 168.5,56.6 165,34.9 161.6,13.3 182.1,21.1 	"/>
	<polygon class="st2" points="148,78.8 129.3,67.3 110.5,55.9 129.8,45.4 149.1,34.9 148.5,56.8 	"/>
	<polygon class="st2" points="114.3,29.2 104.9,36.9 95.5,44.5 92.3,30.9 89,17.3 101.7,23.2 	"/>
	<polygon class="st2" points="58,141 41,154.8 24,168.6 20.5,147 17.1,125.3 37.5,133.2 	"/>
	<polygon class="st2" points="153.6,126.2 136.6,140 119.6,153.8 116.1,132.2 112.6,110.5 133.1,118.4 	"/>
	<polygon class="st2" points="207.5,66.8 198.2,74.4 189,81.9 186.4,69.2 183.8,56.6 195.6,61.7 	"/>
	<polygon class="st3" points="41.8,31.6 31.4,40 21.1,48.4 15.5,30.9 9.9,13.4 25.8,22.5 	"/>
	<polygon class="st3" points="106.2,146.6 86,138.2 65.8,129.7 80.1,123.7 94.5,117.7 100.4,132.2 	"/>
	<polygon class="st3" points="60.3,71.9 74,71.9 87.7,71.9 80.8,90.9 74,109.9 67.1,90.9 	"/>
	<polygon class="st3" points="186.6,169.2 169.2,155.8 151.9,142.4 172.2,134.1 192.5,125.8 189.5,147.5 	"/>
	<polygon class="st3" points="53.5,84.9 36.5,98.7 19.5,112.5 16,90.9 12.5,69.2 33,77 	"/>
	<polygon class="st1" points="91.5,245.7 74.5,244.3 57.5,242.9 67.8,220.8 78.2,198.6 84.9,222.1 	"/>
	<polygon class="st1" points="130.3,274.5 121.4,281.8 112.5,289 104.9,270.6 97.4,252.1 113.9,263.3 	"/>
	<polygon class="st1" points="82.7,371.3 66.3,372 49.9,372.8 57.6,363 65.4,353.1 74.1,362.2 	"/>
	<polygon class="st1" points="162.9,360.7 152,369.5 141.1,378.4 138.7,364.3 136.3,350.3 149.6,355.5 	"/>
	<polygon class="st1" points="39.1,185.3 28.2,194.2 17.3,203.1 14.9,189 12.5,174.9 25.8,180.1 	"/>
	<polygon class="st1" points="207.3,283 190.2,296.8 173.2,310.6 169.8,289 166.3,267.3 186.8,275.2 	"/>
	<polygon class="st1" points="203.1,217.8 186.1,231.6 169,245.4 165.6,223.8 162.1,202.1 182.6,209.9 	"/>
	<polygon class="st2" points="148.5,267.6 129.8,256.2 111.1,244.7 130.3,234.3 149.6,223.8 149,245.7 	"/>
	<polygon class="st2" points="133.7,209.1 124.2,216.7 114.8,224.4 111.6,210.8 108.3,197.1 121,203.1 	"/>
	<polygon class="st2" points="117.8,186 106.2,182.5 94.6,179 104.1,168.6 113.5,158.3 115.7,172.1 	"/>
	<polygon class="st2" points="58.6,329.8 41.5,343.7 24.5,357.5 21.1,335.8 17.6,314.2 38.1,322 	"/>
	<polygon class="st2" points="154.1,315 137.1,328.9 120.1,342.7 116.6,321 113.2,299.4 133.7,307.2 	"/>
	<polygon class="st2" points="208,255.7 198.8,263.2 189.5,270.7 186.9,258.1 184.3,245.4 196.2,250.6 	"/>
	<polygon class="st2" points="204,190 194.8,197.6 185.6,205.1 183,192.4 180.4,179.8 192.2,184.9 	"/>
	<polygon class="st2" points="118.1,438.5 108.8,446 99.6,453.5 97,440.9 94.4,428.2 106.2,433.4 	"/>
	<polygon class="st2" points="50.7,394.3 38.3,404.4 25.8,414.5 21.9,396.9 17.9,379.4 34.3,386.8 	"/>
	<polygon class="st3" points="49.5,228.9 39.2,237.3 28.9,245.7 23.2,228.2 17.6,210.8 33.5,219.8 	"/>
	<polygon class="st3" points="106.8,335.5 86.5,327 66.3,318.6 80.7,312.6 95.1,306.6 100.9,321 	"/>
	<polygon class="st3" points="60.8,260.7 74.5,260.7 88.2,260.7 81.3,279.7 74.5,298.7 67.7,279.7 	"/>
	<polygon class="st3" points="187.1,358.1 169.8,344.6 152.4,331.2 172.7,322.9 193,314.6 190.1,336.3 	"/>
	<polygon class="st3" points="54,273.7 37,287.5 20,301.4 16.5,279.7 13.1,258.1 33.5,265.9 	"/>
	<polygon class="st1" points="334.5,61.8 317.5,60.4 300.5,59.1 310.8,36.9 321.2,14.7 327.9,38.3 	"/>
	<polygon class="st1" points="373.3,90.6 364.4,97.9 355.5,105.1 347.9,86.7 340.4,68.3 356.9,79.5 	"/>
	<polygon class="st1" points="325.7,187.4 309.3,188.2 292.9,189 300.6,179.1 308.4,169.2 317.1,178.3 	"/>
	<polygon class="st1" points="377.8,176.8 366.9,185.7 356,194.5 353.6,180.5 351.2,166.4 364.5,171.6 	"/>
	<polygon class="st1" points="463.6,188.8 452.6,197.6 441.7,206.5 439.4,192.4 437,178.3 450.3,183.5 	"/>
	<polygon class="st1" points="456.5,80.7 439.5,94.5 422.5,108.3 419,86.7 415.5,65 436,72.9 	"/>
	<polygon class="st1" points="436.7,38.4 419.7,52.2 402.7,66 399.2,44.4 395.8,22.7 416.3,30.5 	"/>
	<polygon class="st2" points="391.5,83.7 372.8,72.3 354.1,60.9 373.3,50.4 392.6,39.9 392,61.8 	"/>
	<polygon class="st2" points="376.7,25.2 367.2,32.9 357.8,40.5 354.6,26.9 351.3,13.3 364,19.2 	"/>
	<polygon class="st2" points="301.6,146 284.5,159.8 267.5,173.6 264.1,152 260.6,130.3 281.1,138.1 	"/>
	<polygon class="st2" points="397.1,131.2 380.1,145 363.1,158.8 359.6,137.2 356.2,115.5 376.7,123.3 	"/>
	<polygon class="st2" points="465.5,54.8 456.2,62.3 447,69.8 444.4,57.2 441.8,44.5 453.6,49.7 	"/>
	<polygon class="st2" points="453.6,15.9 444.4,23.4 435.1,30.9 432.5,18.2 429.9,5.6 441.8,10.7 	"/>
	<polygon class="st3" points="292.5,45.1 282.2,53.4 271.9,61.8 266.2,44.4 260.6,26.9 276.5,36 	"/>
	<polygon class="st3" points="349.8,151.6 329.5,143.2 309.3,134.7 323.7,128.7 338.1,122.7 343.9,137.2 	"/>
	<polygon class="st3" points="421.4,168.3 401.2,159.8 381,151.4 395.4,145.4 409.7,139.4 415.6,153.8 	"/>
	<polygon class="st3" points="303.8,76.9 317.5,76.9 331.2,76.9 324.3,95.8 317.5,114.8 310.7,95.8 	"/>
	<polygon class="st3" points="444.7,152 427.4,138.6 410,125.2 430.3,116.9 450.6,108.6 447.7,130.3 	"/>
	<polygon class="st1" points="251.3,93.8 234.3,107.6 217.3,121.4 213.8,99.8 210.3,78.1 230.8,85.9 	"/>
	<polygon class="st1" points="247.1,28.5 230.1,42.4 213.1,56.2 209.6,34.5 206.2,12.9 226.6,20.7 	"/>
	<polygon class="st2" points="252.1,66.5 242.8,74 233.6,81.5 231,68.8 228.4,56.2 240.2,61.3 	"/>
	<polygon class="st3" points="231.2,168.8 213.8,155.4 196.5,142 216.8,133.7 237.1,125.4 234.1,147.1 	"/>
	<polygon class="st3" points="297,89.8 280,103.7 263,117.5 259.5,95.8 256.1,74.2 276.5,82 	"/>
	<polygon class="st1" points="241.8,339.7 224.8,338.3 207.8,337 218.1,314.8 228.5,292.6 235.2,316.2 	"/>
	<polygon class="st1" points="373.9,279.5 365,286.7 356.1,294 348.5,275.5 340.9,257.1 357.4,268.3 	"/>
	<polygon class="st1" points="326.3,376.2 309.8,377 293.4,377.8 301.2,367.9 308.9,358.1 317.6,367.1 	"/>
	<polygon class="st1" points="373.3,449.2 356.9,450 340.4,450.8 348.2,440.9 355.9,431 364.6,440.1 	"/>
	<polygon class="st1" points="406.4,365.7 395.5,374.5 384.6,383.4 382.2,369.3 379.8,355.2 393.1,360.4 	"/>
	<polygon class="st1" points="463.6,411.7 452.6,420.6 441.7,429.4 439.4,415.4 437,401.3 450.3,406.5 	"/>
	<polygon class="st1" points="450.8,288 433.8,301.8 416.8,315.6 413.3,294 409.8,272.3 430.3,280.1 	"/>
	<polygon class="st1" points="446.6,222.7 429.6,236.6 412.6,250.4 409.1,228.7 405.7,207.1 426.1,214.9 	"/>
	<polygon class="st1" points="338,218.4 321,232.2 304,246 300.5,224.4 297,202.7 317.5,210.6 	"/>
	<polygon class="st2" points="392,272.6 373.3,261.1 354.6,249.7 373.9,239.2 393.1,228.7 392.6,250.7 	"/>
	<polygon class="st2" points="377.2,214.1 367.8,221.7 358.4,229.4 355.1,215.7 351.9,202.1 364.5,208.1 	"/>
	<polygon class="st2" points="424.3,186 414.9,193.7 405.5,201.3 402.2,187.7 399,174.1 411.7,180 	"/>
	<polygon class="st2" points="302.1,334.8 285.1,348.6 268.1,362.5 264.6,340.8 261.1,319.2 281.6,327 	"/>
	<polygon class="st2" points="255.5,434.3 238.5,448.1 221.4,462 218,440.3 214.5,418.7 235,426.5 	"/>
	<polygon class="st2" points="397.7,320 380.7,333.8 363.6,347.7 360.2,326 356.7,304.4 377.2,312.2 	"/>
	<polygon class="st2" points="451.6,260.7 442.3,268.2 433.1,275.7 430.5,263 427.9,250.4 439.7,255.5 	"/>
	<polygon class="st2" points="468.3,338.4 459.1,346 449.9,353.5 447.3,340.8 444.7,328.2 456.5,333.3 	"/>
	<polygon class="st2" points="463.4,376 454.2,383.6 444.9,391.1 442.3,378.4 439.7,365.8 451.6,370.9 	"/>
	<polygon class="st2" points="321.1,302 311.9,309.5 302.7,317 300.1,304.4 297.5,291.7 309.3,296.8 	"/>
	<polygon class="st2" points="259,406 249.7,413.5 240.5,421.1 237.9,408.4 235.3,395.8 247.1,400.9 	"/>
	<polygon class="st2" points="192.2,373.5 183,381 173.7,388.5 171.1,375.9 168.5,363.2 180.4,368.3 	"/>
	<polygon class="st3" points="293,233.9 282.7,242.3 272.4,250.7 266.8,233.2 261.1,215.7 277.1,224.8 	"/>
	<polygon class="st3" points="350.3,340.4 330.1,332 309.8,323.6 324.2,317.6 338.6,311.6 344.5,326 	"/>
	<polygon class="st3" points="211.1,354.8 224.8,354.8 238.5,354.8 231.6,373.8 224.8,392.7 218,373.7 	"/>
	<polygon class="st1" points="244.6,224.6 227.6,223.2 210.6,221.8 220.9,199.7 231.3,177.5 238,201 	"/>
	<polygon class="st3" points="213.9,239.6 227.6,239.6 241.3,239.6 234.4,258.6 227.6,277.6 220.8,258.6 	"/>
	<polygon class="st3" points="430.7,363 413.3,349.6 396,336.2 416.3,327.9 436.6,319.6 433.6,341.3 	"/>
	<polygon class="st1" points="83.6,450.3 67.2,451.1 50.8,451.9 58.5,442 66.3,432.1 75,441.2 	"/>
	<polygon class="st1" points="163.8,439.7 152.9,448.6 142,457.4 139.6,443.4 137.2,429.3 150.5,434.5 	"/>
	<polygon class="st1" points="268.8,374.8 257.9,383.6 246.9,392.5 244.6,378.4 242.2,364.3 255.5,369.5 	"/>
	<polygon class="st2" points="53.5,434.9 36.5,448.7 19.5,462.5 16,440.9 12.5,419.2 33,427.1 	"/>
	<polygon class="st2" points="155.1,394.1 138,407.9 121,421.7 117.6,400.1 114.1,378.4 134.6,386.2 	"/>
	<polygon class="st3" points="107.7,414.5 87.4,406.1 67.2,397.6 81.6,391.6 96,385.6 101.8,400.1 	"/>
	<polygon class="st3" points="188,437.1 170.7,423.7 153.4,410.3 173.6,402 193.9,393.6 191,415.4 	"/>
	<polygon class="st1" points="331.5,454.1 315.1,454.9 298.6,455.7 306.4,445.8 314.2,435.9 322.8,445 	"/>
	<polygon class="st1" points="411.7,443.5 400.7,452.4 389.8,461.2 387.5,447.2 385.1,433.1 398.4,438.3 	"/>
	<polygon class="st1" points="465.4,448 454.5,456.9 443.6,465.7 441.2,451.7 438.8,437.6 452.1,442.8 	"/>
	<polygon class="st2" points="307.3,412.7 290.3,426.5 273.3,440.3 269.8,418.7 266.4,397 286.9,404.8 	"/>
	<polygon class="st2" points="402.9,397.9 385.9,411.7 368.9,425.5 365.4,403.9 361.9,382.2 382.4,390 	"/>
	<polygon class="st3" points="355.5,418.3 335.3,409.8 315.1,401.4 329.5,395.4 343.8,389.4 349.7,403.9 	"/>
	<polygon class="st3" points="337.7,282 317.5,273.6 297.3,265.1 311.7,259.2 326,253.2 331.9,267.6 	"/>
	<polygon class="st3" points="424.4,440.9 407.1,427.5 389.7,414 410,405.7 430.3,397.4 427.4,419.2 	"/>
	<polygon class="st3" points="297.6,278.7 280.5,292.5 263.5,306.3 260.1,284.7 256.6,263 277.1,270.9 	"/>
</g>
</svg>
